<svg xmlns="http://www.w3.org/2000/svg" width="1024" height="1024" viewBox="0 0 1024 1024">
<g>
<path d="M 740.07 754.88 C736.81,756.36 717.04,756.51 514.00,756.65 C391.62,756.74 290.09,756.47 288.36,756.05 C282.06,754.54 274.82,748.42 271.15,741.50 L 268.50 736.50 L 268.23 513.00 C267.97,305.76 268.08,289.18 269.63,285.06 C272.10,278.54 278.17,272.45 284.63,270.04 C290.05,268.01 291.18,268.00 512.45,268.00 L 734.82 268.00 L 740.47 270.16 C747.37,272.80 753.14,278.94 755.12,285.74 C756.28,289.73 756.50,326.64 756.50,513.50 L 756.50 736.50 L 753.81 741.59 C750.83,747.25 745.49,752.41 740.07,754.88 ZM 285.29 751.50 L 288.50 754.86 L 509.08 754.93 C706.44,754.99 730.21,754.83 734.93,753.43 C737.83,752.57 740.43,752.09 740.71,752.37 C741.43,753.10 743.88,750.65 743.34,749.75 C743.09,749.34 743.82,749.00 744.97,749.00 C747.57,749.00 748.70,746.35 747.16,743.88 C745.57,741.34 745.65,741.08 748.45,740.02 C749.80,739.51 751.71,737.60 752.70,735.79 C754.42,732.65 754.50,722.35 754.50,512.00 L 754.50 291.50 L 752.34 286.94 C751.15,284.44 749.46,281.80 748.59,281.07 C747.71,280.35 747.00,279.14 747.00,278.40 C747.00,277.65 745.91,276.76 744.57,276.43 C743.24,276.09 741.90,275.19 741.60,274.41 C741.31,273.63 740.25,273.00 739.25,273.00 C738.26,273.00 736.67,272.10 735.73,271.00 C734.03,269.01 732.78,269.00 511.51,269.00 C389.13,269.00 289.00,269.37 289.00,269.83 C289.00,270.85 279.66,277.00 278.11,277.00 C277.50,277.00 277.00,277.67 277.00,278.50 C277.00,279.33 276.21,280.82 275.25,281.82 C274.29,282.82 272.51,285.03 271.29,286.72 L 269.08 289.80 L 269.06 509.09 C269.05,629.69 269.31,730.08 269.64,732.18 C269.98,734.27 271.40,737.22 272.80,738.73 C274.20,740.24 275.63,742.84 275.96,744.49 C276.44,746.84 277.17,747.57 279.33,747.82 C280.85,748.00 283.52,749.65 285.29,751.50 ZM 1011.75 776.25 L 1011.50 1011.50 L 512.92 1011.75 C238.70,1011.89 14.03,1011.70 13.67,1011.33 C13.30,1010.97 13.07,789.00 13.16,518.08 C13.25,250.19 13.58,34.42 13.90,34.42 C13.90,34.42 13.91,34.44 13.91,34.50 C14.24,39.45 14.42,260.17 14.33,524.99 C14.20,859.25 14.47,1006.86 15.20,1007.74 C16.04,1008.75 114.14,1009.00 512.09,1009.00 C1002.58,1009.00 1007.94,1008.98 1008.97,1007.05 C1009.69,1005.72 1010.01,941.66 1010.00,803.80 C1009.99,693.09 1009.99,588.66 1009.99,571.75 C1010.00,551.88 1010.35,541.00 1011.00,541.00 C1011.67,541.00 1011.92,619.59 1011.75,776.25 ZM 1012.00 275.50 C1012.00,449.83 1011.66,538.00 1011.00,538.00 L 1010.98 538.00 C1010.95,538.00 1010.92,538.00 1010.89,538.00 C1009.75,537.81 1009.75,530.58 1009.85,257.28 L 1009.86 253.03 C1009.93,58.92 1009.72,18.22 1008.61,16.53 L 1007.27 14.49 L 512.04 14.70 C147.69,14.85 16.46,15.20 15.46,16.03 C14.72,16.65 13.94,18.81 13.72,20.83 C13.45,23.46 13.29,22.87 13.17,18.75 L 13.00 13.00 L 1012.00 13.00 ZM 751.50 763.00 C750.93,763.92 749.00,764.44 749.00,763.67 C749.00,763.49 751.08,761.85 753.61,760.03 C759.28,755.96 763.46,749.57 766.06,741.00 C768.00,734.60 768.03,731.01 767.76,509.50 L 767.50 284.50 L 764.19 277.50 C759.73,268.07 753.13,261.90 744.21,258.82 L 737.50 256.50 L 286.50 256.50 L 280.72 258.83 C277.23,260.24 272.60,263.33 269.08,266.58 C265.86,269.56 262.96,272.00 262.62,272.00 C261.22,272.00 262.14,268.02 263.82,266.81 C264.81,266.09 265.93,264.71 266.28,263.75 C266.64,262.79 267.64,262.00 268.51,262.00 C269.37,262.00 271.37,261.05 272.95,259.88 C274.52,258.72 276.30,258.07 276.90,258.44 C277.51,258.81 278.00,258.61 278.00,258.00 C278.00,257.39 278.40,257.13 278.89,257.43 C279.37,257.73 280.33,257.31 281.01,256.49 C281.69,255.67 283.51,255.00 285.06,255.00 C286.61,255.00 288.18,254.52 288.54,253.94 C289.33,252.66 735.82,252.89 736.61,254.18 C736.89,254.63 737.96,255.00 738.98,255.00 C740.00,255.00 742.11,255.65 743.67,256.45 C745.23,257.25 748.70,258.49 751.39,259.20 C754.61,260.06 756.82,261.35 757.87,263.00 C758.75,264.38 760.29,266.11 761.30,266.85 C762.31,267.60 762.88,268.86 762.58,269.66 C761.99,271.18 765.16,278.27 767.71,281.18 C769.01,282.66 769.18,311.12 769.07,512.33 L 768.96 741.80 L 765.98 747.38 C764.34,750.45 763.00,753.66 763.00,754.51 C763.00,755.35 761.90,756.47 760.56,756.98 C759.22,757.49 757.63,758.83 757.03,759.95 C756.42,761.08 755.07,762.00 754.02,762.00 C752.98,762.00 751.84,762.45 751.50,763.00 ZM 700.98 666.33 C686.39,666.55 673.11,666.97 671.48,667.26 C666.83,668.06 659.06,665.45 655.34,661.84 C653.50,660.06 652.00,658.09 652.00,657.45 C652.00,655.36 646.02,648.00 644.33,648.00 C643.41,648.00 642.96,647.70 643.33,647.34 C643.69,646.97 641.89,644.53 639.32,641.91 C636.74,639.29 634.54,636.47 634.42,635.64 C634.09,633.38 630.73,629.13 628.75,628.46 C627.79,628.13 627.00,627.30 627.00,626.61 C627.00,625.91 625.84,624.26 624.41,622.92 C622.99,621.59 621.21,619.03 620.46,617.23 C619.70,615.44 618.06,613.59 616.80,613.12 C615.55,612.66 613.61,610.53 612.51,608.39 C611.40,606.25 609.57,604.09 608.43,603.59 C607.30,603.09 604.72,599.67 602.70,595.98 C600.68,592.29 598.30,588.67 597.41,587.93 C596.52,587.19 595.40,585.55 594.92,584.29 C594.35,582.78 593.23,582.00 591.65,582.00 C588.52,582.00 586.67,579.67 586.67,575.75 C586.67,573.24 585.58,571.58 581.33,567.58 C578.40,564.82 576.00,562.06 576.00,561.45 C576.00,559.32 571.17,555.72 569.05,556.28 C566.44,556.96 566.43,555.82 569.02,553.48 C570.26,552.36 571.40,552.01 571.95,552.57 C573.08,553.73 606.39,595.61 622.50,616.12 C643.93,643.40 659.24,662.48 660.60,663.59 C662.46,665.10 731.63,664.77 733.17,663.23 C733.97,662.43 733.35,660.96 730.89,657.84 C729.02,655.48 723.00,647.86 717.50,640.91 C690.36,606.62 670.75,581.71 649.18,554.11 C643.86,547.30 637.03,538.66 634.00,534.91 C620.12,517.72 617.87,514.80 618.23,514.44 C618.98,513.69 631.00,526.88 631.00,528.46 C631.00,529.33 632.12,530.48 633.50,531.00 C635.21,531.65 636.00,532.71 636.00,534.36 C636.00,535.88 636.70,536.95 637.90,537.26 C638.94,537.54 640.54,539.34 641.46,541.26 C643.24,545.02 654.22,558.62 657.28,560.85 C658.29,561.59 659.54,563.30 660.05,564.64 C660.56,565.98 662.33,567.85 663.98,568.79 C665.98,569.93 666.99,571.29 666.99,572.85 C667.00,576.07 670.56,580.80 673.27,581.18 C674.71,581.39 675.62,582.31 675.83,583.80 C676.02,585.17 677.18,586.50 678.68,587.07 C680.42,587.73 681.01,588.53 680.59,589.63 C680.09,590.93 680.47,591.10 682.62,590.56 C685.14,589.93 685.24,590.04 684.65,593.00 C684.11,595.71 684.60,596.70 688.57,600.80 C691.07,603.39 693.35,606.66 693.64,608.07 C694.24,610.95 700.45,618.00 702.39,618.00 C703.93,618.00 708.00,622.19 708.00,623.78 C708.00,624.41 709.34,626.30 710.97,627.97 C712.60,629.64 713.69,631.64 713.40,632.41 C713.07,633.25 713.67,634.08 714.88,634.46 C715.99,634.81 717.15,635.88 717.45,636.84 C717.75,637.80 720.03,640.27 722.50,642.34 C725.59,644.92 727.00,646.87 727.00,648.55 C727.00,650.30 727.55,651.00 728.93,651.00 C730.79,651.00 732.80,654.53 731.62,655.71 C731.31,656.02 732.17,657.60 733.53,659.22 C737.37,663.78 736.85,665.73 731.75,665.83 C729.41,665.87 715.56,666.10 700.98,666.33 ZM 532.49 769.49 C418.35,769.69 321.03,770.07 316.23,770.32 C304.68,770.95 285.10,769.66 282.16,768.09 C278.75,766.26 280.12,765.75 285.13,766.99 C290.48,768.30 739.55,767.97 742.25,766.64 C743.34,766.11 744.00,766.18 744.00,766.83 C744.00,767.40 743.11,768.15 742.02,768.49 C740.93,768.84 646.64,769.29 532.49,769.49 ZM 337.99 666.81 C323.25,666.78 310.82,666.99 310.35,667.28 C309.88,667.57 308.15,667.21 306.50,666.48 C303.92,665.35 307.76,665.15 333.67,665.08 C350.26,665.04 364.55,664.73 365.42,664.39 C366.83,663.85 367.00,658.16 367.00,610.39 L 367.00 557.00 L 390.51 557.00 L 400.45 570.75 C405.92,578.31 412.84,587.78 415.82,591.79 C418.80,595.81 420.99,599.34 420.69,599.64 C420.19,600.14 417.43,597.78 410.00,590.47 C407.66,588.18 403.95,581.75 402.63,577.73 C402.31,576.76 401.03,575.57 399.78,575.09 C396.25,573.73 393.42,569.96 392.02,564.75 C390.87,560.48 390.37,559.91 386.94,558.98 C383.03,557.93 372.13,558.57 370.71,559.93 C370.27,560.35 369.75,583.53 369.54,611.44 C369.18,662.11 369.17,662.19 366.98,664.53 L 364.77 666.87 ZM 455.56 368.47 C457.43,369.88 457.41,369.93 455.00,369.85 C453.62,369.81 450.70,369.32 448.50,368.77 C446.10,368.17 410.35,367.52 359.33,367.14 C276.80,366.52 274.20,366.44 275.51,364.66 C276.75,362.95 277.54,362.90 285.68,363.91 C291.65,364.65 314.52,364.83 356.50,364.47 L 360.20 364.44 C440.81,363.75 447.43,363.70 447.96,365.46 C448.00,365.62 448.00,365.79 448.00,365.98 C448.00,366.01 448.00,366.05 448.00,366.08 C448.00,366.59 449.26,367.00 450.81,367.00 C452.35,367.00 454.49,367.66 455.56,368.47 ZM 693.01 413.94 C692.68,415.34 690.34,417.85 687.52,419.84 L 682.60 423.29 L 688.38 416.40 C712.03,388.15 729.00,367.32 729.00,366.52 C729.00,366.23 712.61,366.00 692.57,366.00 L 656.13 366.00 L 652.32 370.75 C642.34,383.19 634.70,392.00 633.89,392.00 C631.60,392.00 633.61,388.84 640.55,381.49 C644.71,377.10 648.95,371.64 649.97,369.36 C651.00,367.08 652.29,364.94 652.84,364.60 C654.14,363.80 676.45,363.11 699.50,363.15 C724.60,363.20 727.54,363.37 729.38,364.90 C731.81,366.92 731.38,370.70 728.50,372.59 C725.90,374.30 725.27,376.87 727.02,378.62 C727.71,379.31 727.15,380.05 725.27,380.92 C723.75,381.62 721.39,382.72 720.04,383.36 C718.69,384.00 717.32,385.65 717.00,387.02 C716.61,388.70 715.36,389.85 713.12,390.58 C709.38,391.80 708.04,393.46 708.02,396.86 C708.00,398.48 707.56,399.04 706.57,398.67 C704.87,398.01 702.56,400.47 703.47,401.96 C703.83,402.53 702.95,403.45 701.52,403.99 C699.47,404.77 698.98,405.56 699.21,407.71 C699.46,410.03 699.06,410.52 696.54,410.97 C694.46,411.35 693.42,412.22 693.01,413.94 ZM 562.55 477.87 C553.82,488.22 553.43,488.56 552.60,486.41 C552.27,485.55 552.00,458.10 552.00,425.42 L 552.00 366.00 L 492.00 366.00 L 492.00 368.95 C492.00,371.43 493.01,372.62 498.29,376.39 C504.80,381.04 508.99,385.00 507.39,385.00 C506.88,385.00 503.77,382.98 500.48,380.51 C497.19,378.04 493.94,376.02 493.25,376.01 C492.56,376.00 492.00,375.51 492.00,374.91 C492.00,374.31 491.14,372.73 490.10,371.40 C488.99,370.00 488.42,368.12 488.72,366.95 C489.82,362.75 492.76,362.41 523.23,363.04 C539.03,363.36 552.27,363.93 552.65,364.32 C553.03,364.70 553.27,391.08 553.18,422.95 L 553.02 480.88 L 555.26 480.47 C557.32,480.09 562.09,475.59 564.50,471.77 C565.05,470.90 566.56,469.87 567.85,469.49 C569.66,468.96 568.41,470.93 562.55,477.87 ZM 502.50 666.93 C488.75,666.93 476.38,667.16 475.00,667.42 C472.61,667.88 469.55,666.30 463.19,661.31 C461.91,660.32 460.73,658.22 460.56,656.66 C460.35,654.73 458.44,652.10 454.63,648.49 C451.53,645.57 449.00,642.52 449.00,641.72 C449.00,640.92 447.20,639.02 445.00,637.50 C441.72,635.23 441.00,634.14 441.00,631.47 C441.00,629.50 440.41,627.99 439.50,627.64 C438.67,627.32 438.00,626.46 438.00,625.72 C438.00,624.99 436.21,623.06 434.02,621.44 C431.84,619.82 430.04,617.89 430.02,617.15 C430.01,616.41 429.11,614.56 428.02,613.03 C426.94,611.51 425.59,609.19 425.04,607.88 C424.48,606.57 423.29,604.49 422.39,603.25 C421.49,602.01 421.23,601.00 421.81,601.00 C422.39,601.00 423.88,602.46 425.11,604.25 C426.35,606.04 432.38,614.25 438.50,622.50 C444.62,630.75 454.22,643.69 459.82,651.25 L 470.02 665.00 L 500.76 665.07 C519.69,665.11 530.73,665.48 529.50,666.03 C528.40,666.53 516.25,666.93 502.50,666.93 ZM 442.00 495.74 C435.03,498.21 433.06,498.43 414.25,498.80 C399.92,499.09 394.00,498.88 394.00,498.10 C394.00,497.34 399.12,497.00 410.43,497.00 C420.29,497.00 428.00,496.55 429.68,495.87 C431.23,495.25 434.08,494.63 436.00,494.48 C441.95,494.04 449.11,490.85 452.61,487.09 C454.44,485.11 455.96,482.94 455.97,482.25 C455.99,481.56 456.84,480.16 457.87,479.13 C462.11,474.89 461.65,459.24 457.00,449.50 C455.35,446.04 454.00,442.55 454.00,441.74 C454.00,439.02 450.15,435.15 448.00,435.71 C445.57,436.35 441.00,433.54 441.00,431.41 C441.00,428.20 449.89,432.83 455.07,438.74 C460.89,445.36 462.38,450.18 462.44,462.50 C462.52,476.57 461.29,480.53 454.71,487.53 C450.38,492.14 448.23,493.53 442.00,495.74 ZM 553.72 652.34 C552.46,653.80 550.93,655.00 550.31,655.00 C549.70,655.00 548.02,653.00 546.59,650.57 C545.16,648.13 543.09,645.85 542.00,645.50 C540.90,645.15 540.00,644.26 540.00,643.51 C540.00,642.76 538.89,640.83 537.53,639.22 C534.90,636.09 532.56,630.99 533.77,631.02 C534.17,631.03 537.65,635.31 541.50,640.54 C545.35,645.76 549.27,651.04 550.22,652.27 C551.85,654.39 551.94,652.42 551.97,612.97 L 552.00 571.45 L 559.05 564.47 C564.99,558.61 565.93,557.98 565.00,560.50 C564.39,562.15 561.55,565.88 558.69,568.79 L 553.50 574.09 L 553.69 609.68 C553.81,633.27 554.23,645.63 554.94,646.34 C556.54,647.94 556.24,649.41 553.72,652.34 ZM 585.65 450.27 C577.49,460.02 570.44,468.00 569.99,468.00 C567.96,468.00 572.80,459.47 576.97,455.68 C579.50,453.38 583.49,448.75 585.84,445.39 C588.18,442.03 591.18,438.78 592.51,438.18 C593.85,437.57 596.19,435.37 597.72,433.29 C601.19,428.56 602.73,426.71 611.75,416.43 C615.74,411.89 619.00,407.39 619.00,406.43 C619.00,405.47 620.69,403.07 622.75,401.10 C624.81,399.12 626.96,396.67 627.51,395.65 C628.14,394.51 629.36,393.93 630.69,394.15 C632.83,394.50 630.30,397.74 602.66,430.02 C601.47,431.41 593.82,440.52 585.65,450.27 ZM 508.02 527.71 C508.01,528.38 507.10,529.41 506.00,530.00 C503.16,531.52 503.51,530.55 507.37,526.25 C516.10,516.53 522.93,501.94 526.22,486.01 C527.86,478.04 528.10,473.83 527.70,460.00 C527.43,450.92 526.88,442.38 526.47,441.00 C525.77,438.63 525.83,438.59 527.53,440.20 C528.85,441.45 529.27,443.22 529.14,446.95 C529.04,449.83 529.40,452.00 529.98,452.00 C530.60,452.00 531.00,455.88 531.00,462.00 C531.00,467.50 530.62,472.00 530.15,472.00 C529.68,472.00 529.01,476.13 528.65,481.18 C528.26,486.62 527.39,491.29 526.50,492.64 C525.67,493.90 525.00,496.32 525.00,498.01 C525.00,499.71 524.33,502.40 523.50,504.00 C522.68,505.59 521.87,507.70 521.71,508.70 C521.30,511.25 518.45,515.31 512.86,521.31 C510.21,524.17 508.03,527.05 508.02,527.71 ZM 538.54 652.44 C538.70,653.85 538.75,655.00 538.66,655.00 C538.51,655.00 517.49,626.94 483.92,581.95 C475.49,570.64 475.37,570.42 478.65,571.44 C480.84,572.13 482.00,573.12 482.00,574.31 C482.00,575.31 483.53,577.58 485.40,579.34 C487.40,581.22 489.27,584.29 489.93,586.76 C490.56,589.07 491.93,591.42 492.97,591.99 C494.02,592.55 496.10,595.25 497.60,598.00 C499.09,600.75 500.68,603.00 501.13,603.00 C501.58,603.00 502.65,604.35 503.50,606.00 C504.35,607.65 505.71,609.00 506.53,609.00 C507.34,609.00 508.00,609.69 508.00,610.52 C508.00,611.36 509.12,612.48 510.50,613.00 C511.88,613.52 513.00,614.50 513.00,615.16 C513.00,615.83 513.87,617.30 514.94,618.44 C516.00,619.57 517.09,621.68 517.35,623.12 C517.92,626.29 524.48,635.65 527.11,637.06 C528.15,637.62 529.00,638.56 529.00,639.17 C529.00,639.77 529.79,641.01 530.75,641.91 C535.55,646.43 538.29,650.13 538.54,652.44 ZM 516.74 532.07 C510.77,539.16 507.12,541.60 511.22,535.75 C512.47,533.96 513.80,532.27 514.17,531.99 C514.54,531.71 515.16,530.21 515.55,528.66 C515.94,527.11 516.99,525.56 517.88,525.22 C519.73,524.51 522.92,520.97 522.97,519.57 C523.02,517.93 527.23,509.58 529.05,507.50 C530.01,506.40 531.02,503.70 531.29,501.50 C531.79,497.53 534.24,489.48 536.21,485.34 C536.78,484.15 537.02,481.45 536.76,479.34 C536.21,474.96 537.94,464.00 539.18,464.00 C541.51,464.00 538.41,487.43 534.47,499.52 C530.84,510.65 523.63,523.88 516.74,532.07 ZM 304.45 409.25 C305.43,410.76 305.84,411.99 305.37,411.97 C303.74,411.91 301.29,409.49 300.58,407.25 C300.15,405.91 299.06,405.00 297.87,405.00 C296.50,405.00 295.97,404.43 296.18,403.20 C296.35,402.17 295.10,400.14 293.24,398.45 C291.46,396.83 289.86,394.46 289.68,393.19 C289.51,391.93 288.15,389.77 286.68,388.40 C285.21,387.04 284.00,385.20 284.00,384.31 C284.00,383.43 282.99,381.65 281.75,380.36 C280.51,379.07 278.33,376.77 276.89,375.26 C273.94,372.15 272.52,368.00 274.39,368.00 C275.05,368.00 277.20,370.14 279.16,372.75 C282.58,377.30 300.75,403.52 304.45,409.25 ZM 616.27 510.25 C616.48,511.76 616.58,513.00 616.48,513.00 C616.17,513.00 613.31,509.52 612.60,508.26 C612.16,507.49 617.81,500.01 627.51,488.51 C636.09,478.33 643.31,470.00 643.54,470.00 C644.72,470.00 641.61,475.52 639.48,477.20 C638.11,478.27 636.99,480.12 636.98,481.32 C636.96,484.47 635.72,485.98 632.41,486.86 C630.07,487.49 629.49,488.21 629.45,490.50 C629.42,492.08 628.81,493.56 628.08,493.81 C626.60,494.30 625.67,495.29 619.90,502.50 C616.91,506.23 615.99,508.20 616.27,510.25 ZM 516.48 408.80 C517.95,410.54 519.00,412.82 518.82,413.87 C518.59,415.23 517.50,414.02 515.00,409.64 C510.43,401.63 496.15,387.40 487.41,382.16 C483.05,379.54 481.26,378.01 482.55,378.01 C485.01,378.00 495.00,382.82 495.00,384.01 C495.00,385.46 500.16,391.05 501.36,390.90 C504.15,390.56 505.00,391.20 505.78,394.25 C506.46,396.91 507.36,397.74 510.76,398.83 C514.54,400.04 514.87,400.41 514.37,402.90 C513.96,404.93 514.51,406.46 516.48,408.80 ZM 532.38 628.75 C533.27,630.26 533.27,630.26 529.48,628.60 C527.81,627.88 525.90,626.08 525.23,624.61 C523.73,621.31 522.52,619.73 517.87,615.00 C515.87,612.97 513.57,609.78 512.76,607.90 C509.63,600.71 509.07,599.00 509.82,599.00 C510.47,599.00 530.12,624.90 532.38,628.75 ZM 650.81 464.76 C650.57,466.85 649.82,467.57 647.35,468.07 C644.45,468.66 645.29,467.42 657.85,452.74 C665.36,443.96 673.34,434.46 675.58,431.64 C679.69,426.46 685.31,421.09 682.00,425.50 C681.17,426.60 679.94,427.86 679.25,428.30 C678.56,428.74 678.00,430.18 678.00,431.50 C678.00,433.13 676.53,435.12 673.44,437.70 C670.93,439.79 667.91,443.06 666.72,444.96 C665.54,446.87 663.88,449.16 663.04,450.07 C662.19,450.97 660.33,453.01 658.89,454.60 C657.46,456.20 655.12,458.53 653.70,459.80 C652.29,461.06 650.98,463.29 650.81,464.76 ZM 528.32 410.91 C531.18,416.23 531.76,418.00 530.63,418.00 C528.76,418.00 525.98,414.21 526.62,412.54 C526.88,411.87 525.82,409.95 524.27,408.29 C522.71,406.62 520.90,404.07 520.24,402.62 C519.58,401.17 518.69,400.04 518.27,400.11 C515.60,400.54 514.82,399.85 515.40,397.56 C515.83,395.83 515.47,394.74 514.16,393.81 C513.15,393.09 511.73,391.38 511.01,390.00 C510.29,388.62 509.21,387.14 508.60,386.70 C507.94,386.21 508.30,386.02 509.50,386.20 C511.96,386.58 523.07,401.17 528.32,410.91 ZM 500.74 585.55 C505.83,592.40 509.65,597.97 509.24,597.94 C506.64,597.72 504.00,595.78 504.00,594.10 C504.00,592.83 503.21,592.03 501.75,591.82 C500.51,591.64 499.46,590.83 499.40,590.00 C499.18,586.57 498.94,586.00 497.71,586.00 C497.00,586.00 494.73,583.97 492.65,581.48 C489.96,578.27 489.06,576.40 489.50,574.98 C489.85,573.89 490.44,573.02 490.82,573.05 C491.19,573.08 495.66,578.70 500.74,585.55 ZM 540.00 455.75 C540.00,465.48 537.24,460.41 536.87,450.00 C536.80,448.08 536.07,444.97 535.26,443.11 C534.37,441.07 533.98,438.18 534.29,435.86 C534.64,433.25 534.46,432.21 533.73,432.66 C533.05,433.09 532.90,432.70 533.33,431.58 C533.70,430.62 534.01,429.09 534.03,428.17 C534.06,426.66 534.16,426.66 535.08,428.24 C536.62,430.89 540.00,449.79 540.00,455.75 ZM 473.96 562.80 C475.99,564.41 476.24,565.14 475.42,566.98 C474.49,569.07 474.11,568.78 469.21,562.19 C466.35,558.34 464.00,554.80 464.00,554.34 C464.00,553.88 467.71,552.23 472.25,550.67 C476.79,549.11 483.42,546.05 487.00,543.86 C490.58,541.68 492.38,540.83 491.00,541.98 C489.62,543.13 487.52,544.97 486.31,546.08 C485.11,547.19 483.15,548.28 481.95,548.51 C480.76,548.74 478.35,550.02 476.59,551.36 C474.41,553.03 472.57,553.64 470.79,553.30 C469.35,553.03 467.37,553.25 466.38,553.80 C464.76,554.71 464.91,555.09 468.05,557.83 C469.95,559.49 472.61,561.73 473.96,562.80 ZM 491.00 559.72 C491.00,562.62 490.55,565.00 490.00,565.00 C489.45,565.00 489.00,562.36 489.00,559.07 C489.00,554.08 489.31,553.04 490.94,552.52 C492.00,552.18 493.02,550.91 493.19,549.70 C493.42,548.08 494.10,547.56 495.78,547.74 C497.39,547.92 498.32,547.28 498.98,545.55 C499.94,543.03 503.28,540.62 504.34,541.68 C504.68,542.01 505.65,541.71 506.50,541.00 C507.35,540.29 508.29,539.96 508.60,540.26 C509.23,540.90 498.57,549.96 494.06,552.63 C491.26,554.28 491.00,554.88 491.00,559.72 ZM 330.25 429.00 C325.25,429.00 320.44,429.28 319.57,429.61 C317.72,430.32 308.00,420.90 308.00,418.40 C308.00,417.56 307.51,415.95 306.90,414.82 C304.51,410.34 308.02,413.80 312.16,420.00 L 316.50 426.50 L 327.34 427.17 C333.30,427.54 338.44,428.10 338.75,428.42 C339.07,428.74 335.25,429.00 330.25,429.00 ZM 544.03 664.43 C542.48,667.34 539.39,667.68 534.50,665.49 C531.55,664.17 531.61,664.14 537.77,663.82 L 544.04 663.50 L 541.32 659.50 C538.63,655.55 538.63,655.52 540.99,657.09 C544.81,659.61 545.60,661.51 544.03,664.43 ZM 478.89 376.36 C480.46,378.26 479.37,378.45 476.50,376.77 C475.40,376.12 470.90,374.33 466.50,372.78 L 458.50 369.96 L 463.95 370.60 C470.12,371.33 476.87,373.93 478.89,376.36 ZM 524.43 427.00 C526.04,431.92 526.56,434.94 525.96,435.96 C525.21,437.24 525.05,437.16 525.02,435.50 C524.99,434.40 523.66,429.72 522.05,425.10 C520.24,419.90 519.67,417.25 520.56,418.13 C521.35,418.92 523.09,422.91 524.43,427.00 ZM 484.00 557.53 C484.00,559.15 482.44,559.52 481.56,558.10 C481.26,557.61 481.68,556.95 482.51,556.64 C483.41,556.29 484.00,556.64 484.00,557.53 ZM 284.00 741.06 C284.00,741.58 283.55,742.00 283.00,742.00 C282.45,742.00 282.00,741.30 282.00,740.44 C282.00,739.58 282.45,739.16 283.00,739.50 C283.55,739.84 284.00,740.54 284.00,741.06 Z" fill="rgb(8,53,85)"/>
<path d="M 1011.75 512.25 L 1011.70 604.59 C1011.58,562.22 1011.35,541.00 1011.00,541.00 C1010.35,541.00 1010.00,551.88 1009.99,571.75 C1009.99,588.66 1009.99,693.09 1010.00,803.80 C1010.01,941.66 1009.69,1005.72 1008.97,1007.05 C1007.94,1008.98 1002.58,1009.00 512.09,1009.00 C114.14,1009.00 16.04,1008.75 15.20,1007.74 C14.47,1006.86 14.20,859.25 14.33,524.99 C14.42,260.17 14.24,39.45 13.91,34.50 C13.91,34.44 13.90,34.42 13.90,34.42 C13.58,34.42 13.25,250.19 13.16,518.08 C13.08,779.95 13.29,996.08 13.63,1010.56 C13.28,995.99 13.00,777.08 13.00,511.83 L 13.00 13.00 L 13.17 18.75 C13.29,22.87 13.45,23.46 13.72,20.83 C13.94,18.81 14.72,16.65 15.46,16.03 C16.46,15.20 147.69,14.85 512.04,14.70 L 1007.27 14.49 L 1008.61 16.53 C1009.72,18.22 1009.93,58.92 1009.86,253.03 L 1009.85 257.28 L 1009.85 257.28 C1009.75,530.58 1009.75,537.81 1010.89,538.00 C1010.92,538.00 1010.95,538.00 1010.98,538.00 L 1011.00 538.00 C1011.35,538.00 1011.61,513.58 1011.77,465.02 ZM 751.50 763.00 C751.84,762.45 752.98,762.00 754.02,762.00 C755.07,762.00 756.42,761.08 757.03,759.95 C757.63,758.83 759.22,757.49 760.56,756.98 C761.90,756.47 763.00,755.35 763.00,754.51 C763.00,753.66 764.34,750.45 765.98,747.38 L 768.96 741.80 L 769.07 512.33 C769.18,311.12 769.01,282.66 767.71,281.18 C765.16,278.27 761.99,271.18 762.58,269.66 C762.88,268.86 762.31,267.60 761.30,266.85 C760.29,266.11 758.75,264.38 757.87,263.00 C756.82,261.35 754.61,260.06 751.39,259.20 C748.70,258.49 745.23,257.25 743.67,256.45 C742.11,255.65 740.00,255.00 738.98,255.00 C737.96,255.00 736.89,254.63 736.61,254.18 C735.82,252.89 289.33,252.66 288.54,253.94 C288.18,254.52 286.61,255.00 285.06,255.00 C283.51,255.00 281.69,255.67 281.01,256.49 C280.33,257.31 279.37,257.73 278.89,257.43 C278.40,257.13 278.00,257.39 278.00,258.00 C278.00,258.61 277.51,258.81 276.90,258.44 C276.30,258.07 274.52,258.72 272.95,259.88 C271.37,261.05 269.37,262.00 268.51,262.00 C267.64,262.00 266.64,262.79 266.28,263.75 C265.93,264.71 264.81,266.09 263.82,266.81 C262.14,268.02 261.22,272.00 262.62,272.00 C262.96,272.00 265.86,269.56 269.08,266.58 C269.92,265.81 270.82,265.04 271.76,264.30 C265.76,269.16 260.22,275.91 258.17,281.50 L 255.97 287.50 L 256.23 514.00 L 256.50 740.50 L 258.88 746.42 C261.23,752.24 269.37,762.00 271.88,762.00 C272.53,762.00 274.17,762.72 275.51,763.60 C276.80,764.45 279.89,765.70 282.47,766.44 C279.75,766.02 279.47,766.64 282.16,768.09 C285.10,769.66 304.68,770.95 316.23,770.32 C321.03,770.07 418.35,769.69 532.49,769.49 C646.64,769.29 740.93,768.84 742.02,768.49 C743.11,768.15 744.00,767.40 744.00,766.83 C744.00,766.18 743.34,766.11 742.25,766.64 C742.15,766.69 741.45,766.74 740.20,766.78 C741.55,766.59 742.28,766.37 742.96,766.11 C745.71,765.06 748.25,763.79 750.57,762.29 C749.61,763.05 749.00,763.57 749.00,763.67 C749.00,764.44 750.93,763.92 751.50,763.00 ZM 285.29 751.50 C283.52,749.65 280.85,748.00 279.33,747.82 C277.17,747.57 276.44,746.84 275.96,744.49 C275.63,742.84 274.20,740.24 272.80,738.73 C271.40,737.22 269.98,734.27 269.64,732.18 C269.31,730.08 269.05,629.69 269.06,509.09 L 269.08 289.80 L 271.29 286.72 C272.51,285.03 274.29,282.82 275.25,281.82 C276.21,280.82 277.00,279.33 277.00,278.50 C277.00,277.67 277.50,277.00 278.11,277.00 C279.66,277.00 289.00,270.85 289.00,269.83 C289.00,269.37 389.13,269.00 511.51,269.00 C732.78,269.00 734.03,269.01 735.73,271.00 C736.67,272.10 738.26,273.00 739.25,273.00 C740.25,273.00 741.31,273.63 741.60,274.41 C741.90,275.19 743.24,276.09 744.57,276.43 C745.91,276.76 747.00,277.65 747.00,278.40 C747.00,279.14 747.71,280.35 748.59,281.07 C749.46,281.80 751.15,284.44 752.34,286.94 L 754.50 291.50 L 754.50 512.00 C754.50,722.35 754.42,732.65 752.70,735.79 C751.71,737.60 749.80,739.51 748.45,740.02 C745.65,741.08 745.57,741.34 747.16,743.88 C748.70,746.35 747.57,749.00 744.97,749.00 C743.82,749.00 743.09,749.34 743.34,749.75 C743.88,750.65 741.43,753.10 740.71,752.37 C740.43,752.09 737.83,752.57 734.93,753.43 C730.21,754.83 706.44,754.99 509.08,754.93 L 288.50 754.86 ZM 337.99 666.81 L 364.77 666.87 L 366.98 664.53 C369.17,662.19 369.18,662.11 369.54,611.44 C369.75,583.53 370.27,560.35 370.71,559.93 C372.13,558.57 383.03,557.93 386.94,558.98 C390.37,559.91 390.87,560.48 392.02,564.75 C393.42,569.96 396.25,573.73 399.78,575.09 C401.03,575.57 402.31,576.76 402.63,577.73 C403.95,581.75 407.66,588.18 410.00,590.47 C417.43,597.78 420.19,600.14 420.69,599.64 C420.94,599.39 419.47,596.91 417.26,593.78 C419.17,596.38 421.24,599.18 423.53,602.28 C422.80,601.50 422.15,601.00 421.81,601.00 C421.23,601.00 421.49,602.01 422.39,603.25 C423.29,604.49 424.48,606.57 425.04,607.88 C425.59,609.19 426.94,611.51 428.02,613.03 C429.11,614.56 430.01,616.41 430.02,617.15 C430.04,617.89 431.84,619.82 434.02,621.44 C436.21,623.06 438.00,624.99 438.00,625.72 C438.00,626.46 438.67,627.32 439.50,627.64 C440.41,627.99 441.00,629.50 441.00,631.47 C441.00,634.14 441.72,635.23 445.00,637.50 C447.20,639.02 449.00,640.92 449.00,641.72 C449.00,642.52 451.53,645.57 454.63,648.49 C458.44,652.10 460.35,654.73 460.56,656.66 C460.73,658.22 461.91,660.32 463.19,661.31 C469.55,666.30 472.61,667.88 475.00,667.42 C476.38,667.16 488.75,666.93 502.50,666.93 C516.25,666.93 528.40,666.53 529.50,666.03 C530.73,665.48 519.69,665.11 500.76,665.07 L 470.02 665.00 L 500.26 664.88 C512.93,664.82 525.63,664.62 532.61,664.37 C532.49,664.58 533.21,664.91 534.50,665.49 C539.39,667.68 542.48,667.34 544.03,664.43 C545.60,661.51 544.81,659.61 540.99,657.09 C539.07,655.81 538.71,655.59 540.09,657.68 L 539.27 656.50 C537.22,653.53 530.10,643.86 517.69,627.15 C530.98,644.92 538.57,655.00 538.66,655.00 C538.75,655.00 538.70,653.85 538.54,652.44 C538.29,650.13 535.55,646.43 530.75,641.91 C529.79,641.01 529.00,639.77 529.00,639.17 C529.00,638.56 528.15,637.62 527.11,637.06 C524.48,635.65 517.92,626.29 517.35,623.12 C517.09,621.68 516.00,619.57 514.94,618.44 C513.87,617.30 513.00,615.83 513.00,615.16 C513.00,614.50 511.88,613.52 510.50,613.00 C509.12,612.48 508.00,611.36 508.00,610.52 C508.00,609.69 507.34,609.00 506.53,609.00 C505.71,609.00 504.35,607.65 503.50,606.00 C502.65,604.35 501.58,603.00 501.13,603.00 C500.68,603.00 499.09,600.75 497.60,598.00 C496.10,595.25 494.02,592.55 492.97,591.99 C491.93,591.42 490.56,589.07 489.93,586.76 C489.27,584.29 487.40,581.22 485.40,579.34 C483.53,577.58 482.00,575.31 482.00,574.31 C482.00,573.12 480.84,572.13 478.65,571.44 C476.17,570.66 475.63,570.60 479.19,575.54 C476.03,571.32 472.75,566.93 469.34,562.37 C466.40,558.44 464.00,554.84 464.00,554.37 C464.00,554.36 464.00,554.36 464.00,554.36 C464.05,554.88 466.38,558.38 469.21,562.19 C474.11,568.78 474.49,569.07 475.42,566.98 C476.24,565.14 475.99,564.41 473.96,562.80 C472.61,561.73 469.95,559.49 468.05,557.83 C464.91,555.09 464.76,554.71 466.38,553.80 C467.37,553.25 469.35,553.03 470.79,553.30 C472.57,553.64 474.41,553.03 476.59,551.36 C478.35,550.02 480.76,548.74 481.95,548.51 C483.15,548.28 485.11,547.19 486.31,546.08 C487.52,544.97 489.62,543.13 491.00,541.98 C492.38,540.83 490.58,541.68 487.00,543.86 C485.61,544.71 483.77,545.69 481.76,546.66 C504.31,535.36 520.56,513.42 526.22,486.01 C527.10,481.73 527.65,476.44 527.86,470.76 C527.81,476.91 527.34,480.59 526.22,486.01 C522.93,501.94 516.10,516.53 507.37,526.25 C503.51,530.55 503.16,531.52 506.00,530.00 C507.10,529.41 508.01,528.38 508.02,527.71 C508.03,527.05 510.21,524.17 512.86,521.31 C518.45,515.31 521.30,511.25 521.71,508.70 C521.87,507.70 522.68,505.59 523.50,504.00 C524.33,502.40 525.00,499.71 525.00,498.01 C525.00,496.32 525.67,493.90 526.50,492.64 C527.39,491.29 528.26,486.62 528.65,481.18 C529.01,476.13 529.68,472.00 530.15,472.00 C530.62,472.00 531.00,467.50 531.00,462.00 C531.00,455.88 530.60,452.00 529.98,452.00 C529.40,452.00 529.04,449.83 529.14,446.95 C529.27,443.22 528.85,441.45 527.53,440.20 C525.83,438.59 525.77,438.63 526.47,441.00 C526.70,441.78 526.98,444.88 527.23,449.07 C526.80,444.65 526.19,440.45 525.40,436.77 C525.54,436.65 525.72,436.37 525.96,435.96 C526.56,434.94 526.04,431.92 524.43,427.00 C523.09,422.91 521.35,418.92 520.56,418.13 C519.69,417.27 520.22,419.78 521.92,424.74 C519.14,416.93 515.59,410.15 511.02,403.96 C512.68,406.03 514.05,407.97 515.00,409.64 C517.50,414.02 518.59,415.23 518.82,413.87 C519.00,412.82 517.95,410.54 516.48,408.80 C514.51,406.46 513.96,404.93 514.37,402.90 C514.87,400.41 514.54,400.04 510.76,398.83 C507.36,397.74 506.46,396.91 505.78,394.25 C505.00,391.20 504.15,390.56 501.36,390.90 C500.16,391.05 495.00,385.46 495.00,384.01 C495.00,382.82 485.01,378.00 482.55,378.01 C481.26,378.01 483.05,379.54 487.41,382.16 C489.09,383.16 490.97,384.50 492.95,386.06 C488.75,382.99 484.15,380.27 479.16,377.91 C479.82,377.96 479.78,377.44 478.89,376.36 C476.87,373.93 470.12,371.33 463.95,370.60 L 458.50 369.96 L 466.50 372.78 C470.09,374.04 473.75,375.47 475.57,376.30 C469.16,373.59 462.17,371.43 454.63,369.83 C454.76,369.84 454.89,369.85 455.00,369.85 C457.41,369.93 457.43,369.88 455.56,368.47 C454.49,367.66 452.35,367.00 450.81,367.00 C449.26,367.00 448.00,366.59 448.00,366.08 C448.00,366.05 448.00,366.01 448.00,365.98 C448.00,365.79 448.00,365.62 447.96,365.46 C447.43,363.70 440.81,363.75 360.20,364.44 L 360.20 364.44 L 356.50 364.47 C314.52,364.83 291.65,364.65 285.68,363.91 C277.54,362.90 276.75,362.95 275.51,364.66 C274.20,366.44 276.80,366.52 359.33,367.14 C370.30,367.22 380.57,367.31 389.95,367.42 C381.11,367.36 370.91,367.31 359.12,367.26 L 274.73 366.86 L 276.89 369.68 C277.15,370.02 277.71,370.79 278.51,371.91 C276.74,369.70 274.98,368.00 274.39,368.00 C272.52,368.00 273.94,372.15 276.89,375.26 C278.33,376.77 280.51,379.07 281.75,380.36 C282.99,381.65 284.00,383.43 284.00,384.31 C284.00,385.20 285.21,387.04 286.68,388.40 C288.15,389.77 289.51,391.93 289.68,393.19 C289.86,394.46 291.46,396.83 293.24,398.45 C295.10,400.14 296.35,402.17 296.18,403.20 C295.97,404.43 296.50,405.00 297.87,405.00 C299.06,405.00 300.15,405.91 300.58,407.25 C301.29,409.49 303.74,411.91 305.37,411.97 C305.84,411.99 305.43,410.76 304.45,409.25 C303.25,407.39 300.53,403.38 297.28,398.64 C301.91,405.29 306.40,411.75 309.60,416.40 C306.77,412.68 305.03,411.31 306.90,414.82 C307.51,415.95 308.00,417.56 308.00,418.40 C308.00,420.90 317.72,430.32 319.57,429.61 C320.44,429.28 325.25,429.00 330.25,429.00 C335.25,429.00 339.07,428.74 338.75,428.42 C338.46,428.13 334.10,427.63 328.77,427.26 C337.50,427.57 360.39,427.83 383.69,427.89 C418.20,427.97 433.69,428.18 442.40,430.37 C441.53,430.31 441.00,430.63 441.00,431.41 C441.00,433.54 445.57,436.35 448.00,435.71 C450.15,435.15 454.00,439.02 454.00,441.74 C454.00,442.55 455.35,446.04 457.00,449.50 C461.65,459.24 462.11,474.89 457.87,479.13 C456.84,480.16 455.99,481.56 455.97,482.25 C455.96,482.94 454.44,485.11 452.61,487.09 C449.11,490.85 441.95,494.04 436.00,494.48 C434.08,494.63 431.23,495.25 429.68,495.87 C428.00,496.55 420.29,497.00 410.43,497.00 C399.12,497.00 394.00,497.34 394.00,498.10 C394.00,498.26 394.23,498.39 394.72,498.50 L 304.50 498.50 L 304.24 580.50 C304.10,625.60 304.20,663.06 304.46,663.75 C304.83,664.71 311.75,665.00 334.39,665.00 C349.07,665.00 361.91,664.78 364.84,664.49 C361.87,664.78 348.72,665.04 333.67,665.08 C307.76,665.15 303.92,665.35 306.50,666.48 C308.15,667.21 309.88,667.57 310.35,667.28 C310.82,666.99 323.25,666.78 337.99,666.81 ZM 700.98 666.33 C715.56,666.10 729.41,665.87 731.75,665.83 C736.85,665.73 737.37,663.78 733.53,659.22 C732.17,657.60 731.31,656.02 731.62,655.71 C732.80,654.53 730.79,651.00 728.93,651.00 C727.55,651.00 727.00,650.30 727.00,648.55 C727.00,646.87 725.59,644.92 722.50,642.34 C720.03,640.27 717.75,637.80 717.45,636.84 C717.15,635.88 715.99,634.81 714.88,634.46 C713.67,634.08 713.07,633.25 713.40,632.41 C713.69,631.64 712.60,629.64 710.97,627.97 C709.34,626.30 708.00,624.41 708.00,623.78 C708.00,622.19 703.93,618.00 702.39,618.00 C700.45,618.00 694.24,610.95 693.64,608.07 C693.35,606.66 691.07,603.39 688.57,600.80 C684.60,596.70 684.11,595.71 684.65,593.00 C685.24,590.04 685.14,589.93 682.62,590.56 C680.47,591.10 680.09,590.93 680.59,589.63 C681.01,588.53 680.42,587.73 678.68,587.07 C677.18,586.50 676.02,585.17 675.83,583.80 C675.62,582.31 674.71,581.39 673.27,581.18 C670.56,580.80 667.00,576.07 666.99,572.85 C666.99,571.29 665.98,569.93 663.98,568.79 C662.33,567.85 660.56,565.98 660.05,564.64 C659.54,563.30 658.29,561.59 657.28,560.85 C654.22,558.62 643.24,545.02 641.46,541.26 C640.54,539.34 638.94,537.54 637.90,537.26 C636.70,536.95 636.00,535.88 636.00,534.36 C636.00,532.71 635.21,531.65 633.50,531.00 C632.12,530.48 631.00,529.33 631.00,528.46 C631.00,526.88 618.98,513.69 618.23,514.44 C617.97,514.69 619.02,516.22 624.53,523.14 C623.21,521.51 621.85,519.85 620.45,518.13 C618.81,516.13 617.24,514.18 615.94,512.54 C616.21,512.83 616.41,513.00 616.48,513.00 C616.58,513.00 616.48,511.76 616.27,510.25 C615.99,508.20 616.91,506.23 619.90,502.50 C625.67,495.29 626.60,494.30 628.08,493.81 C628.81,493.56 629.42,492.08 629.45,490.50 C629.49,488.21 630.07,487.49 632.41,486.86 C635.72,485.98 636.96,484.47 636.98,481.32 C636.99,480.12 638.11,478.27 639.48,477.20 C641.61,475.52 644.72,470.00 643.54,470.00 C643.31,470.00 636.17,478.24 627.64,488.35 C633.71,481.11 642.10,471.24 653.58,457.74 C645.14,467.71 644.82,468.58 647.35,468.07 C649.82,467.57 650.57,466.85 650.81,464.76 C650.98,463.29 652.29,461.06 653.70,459.80 C655.12,458.53 657.46,456.20 658.89,454.60 C660.33,453.01 662.19,450.97 663.04,450.07 C663.88,449.16 665.54,446.87 666.72,444.96 C667.91,443.06 670.93,439.79 673.44,437.70 C676.53,435.12 678.00,433.13 678.00,431.50 C678.00,430.18 678.56,428.74 679.25,428.30 C679.94,427.86 681.17,426.60 682.00,425.50 C684.72,421.88 681.40,424.86 677.85,428.92 C680.69,425.49 685.10,420.19 689.55,414.88 C698.57,404.11 705.84,395.40 711.56,388.49 C705.13,396.32 697.22,405.84 688.38,416.40 L 682.60 423.29 L 687.52 419.84 C690.34,417.85 692.68,415.34 693.01,413.94 C693.42,412.22 694.46,411.35 696.54,410.97 C699.06,410.52 699.46,410.03 699.21,407.71 C698.98,405.56 699.47,404.77 701.52,403.99 C702.95,403.45 703.83,402.53 703.47,401.96 C702.56,400.47 704.87,398.01 706.57,398.67 C707.56,399.04 708.00,398.48 708.02,396.86 C708.04,393.46 709.38,391.80 713.12,390.58 C715.36,389.85 716.61,388.70 717.00,387.02 C717.32,385.65 718.69,384.00 720.04,383.36 C721.39,382.72 723.75,381.62 725.27,380.92 C727.15,380.05 727.71,379.31 727.02,378.62 C725.27,376.87 725.90,374.30 728.50,372.59 C731.38,370.70 731.81,366.92 729.38,364.90 C727.54,363.37 724.60,363.20 699.50,363.15 C676.45,363.11 654.14,363.80 652.84,364.60 C652.29,364.94 651.00,367.08 649.97,369.36 C648.95,371.64 644.71,377.10 640.55,381.49 C633.61,388.84 631.60,392.00 633.89,392.00 C634.32,392.00 636.68,389.51 640.30,385.31 C635.78,390.74 630.64,396.90 625.87,402.58 C631.61,395.51 631.92,394.35 630.69,394.15 C629.36,393.93 628.14,394.51 627.51,395.65 C626.96,396.67 624.81,399.12 622.75,401.10 C620.69,403.07 619.00,405.47 619.00,406.43 C619.00,407.39 615.74,411.89 611.75,416.43 C602.73,426.71 601.19,428.56 597.72,433.29 C596.19,435.37 593.85,437.57 592.51,438.18 C591.18,438.78 588.18,442.03 585.84,445.39 C583.49,448.75 579.50,453.38 576.97,455.68 C572.80,459.47 567.96,468.00 569.99,468.00 C570.44,468.00 577.49,460.02 585.65,450.27 C593.22,441.23 600.35,432.74 602.30,430.44 C601.96,430.85 601.65,431.22 601.37,431.55 C594.46,439.85 576.12,461.71 565.56,474.24 C568.79,470.23 569.29,469.07 567.85,469.49 C566.56,469.87 565.05,470.90 564.50,471.77 C562.09,475.59 557.32,480.09 555.26,480.47 L 553.02 480.88 L 553.18 422.95 C553.27,391.08 553.03,364.70 552.65,364.32 C552.27,363.93 539.03,363.36 523.23,363.04 C492.76,362.41 489.82,362.75 488.72,366.95 C488.42,368.12 488.99,370.00 490.10,371.40 C491.14,372.73 492.00,374.31 492.00,374.91 C492.00,375.51 492.56,376.00 493.25,376.01 C493.94,376.02 497.19,378.04 500.48,380.51 C503.77,382.98 506.88,385.00 507.39,385.00 C508.13,385.00 507.63,384.15 506.23,382.77 C507.69,384.05 509.08,385.35 510.43,386.68 C510.05,386.40 509.74,386.24 509.50,386.20 C508.30,386.02 507.94,386.21 508.60,386.70 C509.21,387.14 510.29,388.62 511.01,390.00 C511.73,391.38 513.15,393.09 514.16,393.81 C515.47,394.74 515.83,395.83 515.40,397.56 C514.82,399.85 515.60,400.54 518.27,400.11 C518.69,400.04 519.58,401.17 520.24,402.62 C520.90,404.07 522.71,406.62 524.27,408.29 C525.82,409.95 526.88,411.87 526.62,412.54 C525.98,414.21 528.76,418.00 530.63,418.00 C531.33,418.00 531.38,417.31 530.62,415.51 C532.58,419.84 534.24,424.55 535.59,429.51 C535.41,428.94 535.23,428.51 535.08,428.24 C534.16,426.66 534.06,426.66 534.03,428.17 C534.01,429.09 533.70,430.62 533.33,431.58 C532.90,432.70 533.05,433.09 533.73,432.66 C534.46,432.21 534.64,433.25 534.29,435.86 C533.98,438.18 534.37,441.07 535.26,443.11 C536.07,444.97 536.80,448.08 536.87,450.00 C537.18,458.84 539.22,463.83 539.83,459.17 C539.89,461.23 539.90,463.29 539.86,465.35 C539.74,464.49 539.51,464.00 539.18,464.00 C537.94,464.00 536.21,474.96 536.76,479.34 C537.02,481.45 536.78,484.15 536.21,485.34 C534.24,489.48 531.79,497.53 531.29,501.50 C531.02,503.70 530.01,506.40 529.05,507.50 C527.23,509.58 523.02,517.93 522.97,519.57 C522.92,520.97 519.73,524.51 517.88,525.22 C516.99,525.56 515.94,527.11 515.55,528.66 C515.16,530.21 514.54,531.71 514.17,531.99 C513.80,532.27 512.47,533.96 511.22,535.75 C507.78,540.65 509.79,539.73 514.05,535.12 C508.76,541.27 502.94,546.62 496.92,550.70 C501.98,547.03 509.12,540.78 508.60,540.26 C508.29,539.96 507.35,540.29 506.50,541.00 C505.65,541.71 504.68,542.01 504.34,541.68 C503.28,540.62 499.94,543.03 498.98,545.55 C498.32,547.28 497.39,547.92 495.78,547.74 C494.10,547.56 493.42,548.08 493.19,549.70 C493.02,550.91 492.00,552.18 490.94,552.52 C489.31,553.04 489.00,554.08 489.00,559.07 C489.00,562.36 489.45,565.00 490.00,565.00 C490.29,565.00 490.55,564.35 490.73,563.32 C490.65,566.63 490.80,569.89 491.11,571.09 C491.39,572.21 494.88,577.40 502.41,587.81 C501.88,587.08 501.32,586.32 500.74,585.55 C495.66,578.70 491.19,573.08 490.82,573.05 C490.44,573.02 489.85,573.89 489.50,574.98 C489.06,576.40 489.96,578.27 492.65,581.48 C494.73,583.97 497.00,586.00 497.71,586.00 C498.94,586.00 499.18,586.57 499.40,590.00 C499.46,590.83 500.51,591.64 501.75,591.82 C503.21,592.03 504.00,592.83 504.00,594.10 C504.00,595.78 506.64,597.72 509.24,597.94 C509.55,597.96 507.53,594.91 504.39,590.54 C508.71,596.48 514.16,603.89 520.87,612.93 C515.46,605.79 510.15,599.00 509.82,599.00 C509.07,599.00 509.63,600.71 512.76,607.90 C513.57,609.78 515.87,612.97 517.87,615.00 C522.52,619.73 523.73,621.31 525.23,624.61 C525.90,626.08 527.81,627.88 529.48,628.60 C533.27,630.26 533.27,630.26 532.38,628.75 C531.90,627.93 530.62,626.09 528.90,623.72 C531.70,627.49 534.68,631.48 537.85,635.71 C535.66,632.91 534.04,631.02 533.77,631.02 C532.56,630.99 534.90,636.09 537.53,639.22 C538.89,640.83 540.00,642.76 540.00,643.51 C540.00,644.26 540.90,645.15 542.00,645.50 C543.09,645.85 545.16,648.13 546.59,650.57 C548.02,653.00 549.70,655.00 550.31,655.00 C550.93,655.00 552.46,653.80 553.72,652.34 C556.24,649.41 556.54,647.94 554.94,646.34 C554.23,645.63 553.81,633.27 553.69,609.68 L 553.50 574.09 L 558.69 568.79 C561.55,565.88 564.39,562.15 565.00,560.50 C565.93,557.98 564.99,558.61 559.05,564.47 L 557.09 566.42 L 561.13 562.15 C563.31,559.84 565.39,557.72 567.09,556.06 C567.13,556.51 567.79,556.61 569.05,556.28 C571.17,555.72 576.00,559.32 576.00,561.45 C576.00,562.06 578.40,564.82 581.33,567.58 C585.58,571.58 586.67,573.24 586.67,575.75 C586.67,579.67 588.52,582.00 591.65,582.00 C593.23,582.00 594.35,582.78 594.92,584.29 C595.40,585.55 596.52,587.19 597.41,587.93 C598.30,588.67 600.68,592.29 602.70,595.98 C604.72,599.67 607.30,603.09 608.43,603.59 C609.57,604.09 611.40,606.25 612.51,608.39 C613.61,610.53 615.55,612.66 616.80,613.12 C618.06,613.59 619.70,615.44 620.46,617.23 C621.21,619.03 622.99,621.59 624.41,622.92 C625.84,624.26 627.00,625.91 627.00,626.61 C627.00,627.30 627.79,628.13 628.75,628.46 C630.73,629.13 634.09,633.38 634.42,635.64 C634.54,636.47 636.74,639.29 639.32,641.91 C641.89,644.53 643.69,646.97 643.33,647.34 C642.96,647.70 643.41,648.00 644.33,648.00 C646.02,648.00 652.00,655.36 652.00,657.45 C652.00,658.09 653.50,660.06 655.34,661.84 C659.06,665.45 666.83,668.06 671.48,667.26 C673.11,666.97 686.39,666.55 700.98,666.33 ZM 965.18 986.60 C966.45,989.55 967.75,991.97 968.07,991.98 C968.38,991.99 969.64,989.56 970.88,986.58 C973.62,979.96 980.69,973.05 987.28,970.53 C989.88,969.54 992.00,968.40 992.00,968.00 C992.00,967.60 989.99,966.50 987.53,965.56 C980.86,963.02 973.61,956.00 970.91,949.49 C969.66,946.47 968.35,944.00 968.00,944.00 C967.65,944.00 966.36,946.43 965.13,949.40 C962.31,956.21 956.18,962.32 949.33,965.16 C943.33,967.64 942.75,968.65 946.75,969.64 C953.84,971.39 961.74,978.66 965.18,986.60 ZM 484.00 557.53 C484.00,556.64 483.41,556.29 482.51,556.64 C481.68,556.95 481.26,557.61 481.56,558.10 C482.44,559.52 484.00,559.15 484.00,557.53 ZM 442.00 495.74 C445.08,494.65 447.16,493.76 449.01,492.58 C447.15,493.77 445.06,494.69 442.00,495.79 L 434.50 498.50 L 425.86 498.50 C434.42,498.16 436.84,497.57 442.00,495.74 ZM 284.00 741.06 C284.00,740.54 283.55,739.84 283.00,739.50 C282.45,739.16 282.00,739.58 282.00,740.44 C282.00,741.30 282.45,742.00 283.00,742.00 C283.55,742.00 284.00,741.58 284.00,741.06 ZM 319.12 767.50 C298.61,767.37 286.00,767.20 285.13,766.99 C284.66,766.87 284.22,766.77 283.82,766.69 C287.18,767.06 297.11,767.32 319.12,767.50 ZM 445.24 431.24 C449.54,432.84 451.97,435.21 455.07,438.74 C452.22,435.49 448.24,432.62 445.24,431.24 ZM 528.32 410.91 C525.34,405.39 520.48,398.31 516.38,393.14 C520.58,398.16 524.31,403.68 527.89,410.09 C528.45,411.09 528.99,412.12 529.51,413.17 C529.17,412.50 528.77,411.75 528.32,410.91 ZM 754.59 759.29 C759.92,754.68 763.76,748.58 766.06,741.00 C763.61,749.07 759.76,755.20 754.59,759.29 ZM 550.88 652.84 C551.79,652.64 551.92,645.30 551.96,613.15 L 552.00 572.80 L 551.97 612.97 C551.94,646.20 551.87,652.84 550.88,652.84 ZM 623.49 493.32 C616.73,501.51 612.75,506.88 612.58,508.07 C612.44,507.12 614.49,504.15 623.49,493.32 ZM 534.47 499.52 C536.23,494.10 537.83,486.39 538.85,479.54 C537.97,486.50 536.51,493.24 534.47,499.52 ZM 596.04 582.66 C603.18,591.61 611.55,602.19 620.77,613.91 C613.93,605.22 604.66,593.52 596.04,582.66 ZM 670.30 438.04 C666.82,442.19 662.25,447.59 657.85,452.74 C657.51,453.13 657.19,453.51 656.87,453.89 C662.01,447.84 666.87,442.10 670.30,438.04 ZM 544.91 645.16 C546.70,647.54 548.53,649.99 550.41,652.50 C550.43,652.53 550.45,652.55 550.47,652.57 C550.39,652.49 550.31,652.39 550.22,652.27 C549.56,651.41 547.44,648.58 544.91,645.16 ZM 639.08 541.28 C642.22,545.24 645.97,550.01 649.18,554.11 C654.38,560.76 659.46,567.26 664.56,573.76 C659.59,567.42 654.51,560.94 649.18,554.12 C645.50,549.42 642.21,545.23 639.08,541.28 ZM 433.63 615.93 C435.17,618.00 436.80,620.19 438.51,622.50 C444.63,630.75 454.22,643.69 459.82,651.25 C454.22,643.69 444.62,630.75 438.50,622.50 C436.84,620.26 435.19,618.03 433.63,615.93 ZM 529.00 512.70 C531.20,508.26 533.09,503.74 534.47,499.52 C533.02,503.94 531.18,508.37 529.00,512.70 ZM 703.01 366.02 C718.00,366.09 729.00,366.29 729.00,366.52 C729.00,366.52 729.00,366.52 729.00,366.53 C728.91,366.29 717.94,366.09 703.01,366.02 ZM 523.27 428.79 C523.91,430.80 524.43,432.62 524.73,433.89 C524.71,433.80 524.68,433.71 524.66,433.63 C524.22,431.97 523.76,430.36 523.27,428.79 ZM 448.56 368.79 C447.91,368.71 447.21,368.64 446.44,368.57 C447.53,368.64 448.23,368.70 448.50,368.77 ZM 473.80 550.11 C473.27,550.31 472.75,550.50 472.25,550.67 C470.74,551.19 469.32,551.72 468.10,552.21 C469.32,551.71 470.74,551.18 472.25,550.66 C472.77,550.48 473.29,550.30 473.80,550.11 ZM 497.96 376.15 C497.27,375.65 496.65,375.20 496.11,374.79 C496.46,375.06 496.84,375.34 497.25,375.63 C497.49,375.81 497.72,375.98 497.96,376.15 ZM 1012.00 17.01 L 1012.00 13.00 L 1012.00 13.00 Z" fill="rgb(20,45,81)"/>
<path d="M 0.00 512.00 L 0.00 0.00 L 512.00 0.00 L 1024.00 0.00 L 1024.00 512.00 L 1024.00 1024.00 L 512.00 1024.00 L 0.00 1024.00 L 0.00 512.00 ZM 1011.75 512.25 L 1012.00 13.00 L 512.50 13.00 L 13.00 13.00 L 13.00 511.83 C13.00,786.19 13.30,1010.97 13.67,1011.33 C14.03,1011.70 238.70,1011.89 512.92,1011.75 L 1011.50 1011.50 L 1011.75 512.25 ZM 965.18 986.60 C961.74,978.66 953.84,971.39 946.75,969.64 C942.75,968.65 943.33,967.64 949.33,965.16 C956.18,962.32 962.31,956.21 965.13,949.40 C966.36,946.43 967.65,944.00 968.00,944.00 C968.35,944.00 969.66,946.47 970.91,949.49 C973.61,956.00 980.86,963.02 987.53,965.56 C989.99,966.50 992.00,967.60 992.00,968.00 C992.00,968.40 989.88,969.54 987.28,970.53 C980.69,973.05 973.62,979.96 970.88,986.58 C969.64,989.56 968.38,991.99 968.07,991.98 C967.75,991.97 966.45,989.55 965.18,986.60 ZM 282.72 766.51 C280.09,765.78 276.85,764.47 275.51,763.60 C274.17,762.72 272.53,762.00 271.88,762.00 C269.37,762.00 261.23,752.24 258.88,746.42 L 256.50 740.50 L 256.23 514.00 L 255.97 287.50 L 258.17 281.50 C261.22,273.19 271.96,262.33 280.50,258.91 L 286.50 256.50 L 512.00 256.50 L 737.50 256.50 L 744.21 258.82 C753.13,261.90 759.73,268.07 764.19,277.50 L 767.50 284.50 L 767.76 509.50 C768.03,731.01 768.00,734.60 766.06,741.00 C762.33,753.27 754.59,761.69 742.96,766.11 C738.12,767.94 731.40,768.00 512.74,767.91 C329.98,767.84 286.60,767.57 282.72,766.51 ZM 740.07 754.88 C745.49,752.41 750.83,747.25 753.81,741.59 L 756.50 736.50 L 756.50 513.50 C756.50,326.64 756.28,289.73 755.12,285.74 C753.14,278.94 747.37,272.80 740.47,270.16 L 734.82 268.00 L 512.45 268.00 C291.18,268.00 290.05,268.01 284.63,270.04 C278.17,272.45 272.10,278.54 269.63,285.06 C268.08,289.18 267.97,305.76 268.23,513.00 L 268.50 736.50 L 271.15 741.50 C274.82,748.42 282.06,754.54 288.36,756.05 C290.09,756.47 391.62,756.74 514.00,756.65 C717.04,756.51 736.81,756.36 740.07,754.88 ZM 304.46 663.75 C304.20,663.06 304.10,625.60 304.24,580.50 L 304.50 498.50 L 369.50 498.50 L 434.50 498.50 L 442.00 495.79 C448.19,493.56 450.41,492.11 454.71,487.53 C461.29,480.53 462.52,476.57 462.44,462.50 C462.38,450.18 460.89,445.36 455.07,438.74 C446.12,428.53 442.77,428.03 383.69,427.89 C357.18,427.83 331.23,427.49 326.00,427.14 L 316.50 426.50 L 312.00 419.90 C304.22,408.48 279.15,372.63 276.89,369.68 L 274.73 366.86 L 359.12 367.26 C434.33,367.61 444.48,367.84 452.50,369.40 C470.77,372.95 485.89,379.76 497.46,389.62 C511.57,401.66 519.69,414.80 524.66,433.63 C528.36,447.62 529.09,472.12 526.22,486.01 C519.80,517.14 499.70,541.21 472.25,550.66 C467.71,552.22 464.00,553.89 464.00,554.37 C464.00,554.84 466.40,558.44 469.34,562.37 C512.60,620.20 535.31,650.77 539.27,656.50 L 544.11 663.50 L 537.31 664.13 C533.56,664.47 516.89,664.81 500.26,664.88 L 470.02 665.00 L 459.82 651.25 C454.22,643.69 444.63,630.75 438.51,622.50 C418.00,594.85 410.45,584.58 400.45,570.75 L 390.51 557.00 L 378.75 557.00 L 367.00 557.00 L 367.00 610.39 C367.00,658.16 366.83,663.85 365.42,664.39 C364.55,664.73 350.58,665.00 334.39,665.00 C311.75,665.00 304.83,664.71 304.46,663.75 ZM 660.60 663.59 C659.24,662.48 643.95,643.44 622.50,616.12 C593.22,578.84 571.96,552.50 571.14,552.50 C570.66,552.50 566.15,556.84 561.13,562.15 L 552.00 571.79 L 551.96 613.15 C551.92,650.12 551.75,654.29 550.41,652.50 C508.39,596.44 491.75,573.59 491.11,571.09 C490.74,569.67 490.60,565.33 490.80,561.46 L 491.15 554.42 L 495.32 551.75 C512.12,541.03 527.72,520.22 534.47,499.52 C543.69,471.24 540.90,433.39 527.89,410.09 C519.73,395.49 510.81,385.46 497.25,375.63 C492.99,372.55 492.00,371.28 492.00,368.91 L 492.00 366.00 L 522.00 366.00 L 552.00 366.00 L 552.02 425.75 C552.02,458.61 552.41,486.10 552.88,486.84 C553.51,487.84 554.90,486.81 558.30,482.84 C562.56,477.86 592.15,442.63 601.37,431.55 C603.64,428.82 608.22,423.42 611.55,419.55 C619.19,410.66 647.25,377.06 652.32,370.75 L 656.13 366.00 L 692.57 366.00 C712.61,366.00 729.00,366.24 729.00,366.53 C729.00,367.44 717.99,380.94 689.55,414.88 C682.92,422.79 676.38,430.67 675.02,432.38 C673.65,434.10 664.86,444.50 655.50,455.50 C617.06,500.63 611.88,507.00 612.64,508.25 C613.06,508.94 616.57,513.38 620.45,518.13 C630.47,530.40 638.08,539.93 649.18,554.12 C672.52,583.95 690.93,607.34 717.50,640.91 C723.00,647.86 729.02,655.48 730.89,657.84 C733.35,660.96 733.97,662.43 733.17,663.23 C731.63,664.77 662.46,665.10 660.60,663.59 Z" fill="rgb(26,230,234)"/>
<path d="M 965.18 986.60 C961.74,978.66 953.84,971.39 946.75,969.64 C942.75,968.65 943.33,967.64 949.33,965.16 C956.18,962.32 962.31,956.21 965.13,949.40 C966.36,946.43 967.65,944.00 968.00,944.00 C968.35,944.00 969.66,946.47 970.91,949.49 C973.61,956.00 980.86,963.02 987.53,965.56 C989.99,966.50 992.00,967.60 992.00,968.00 C992.00,968.40 989.88,969.54 987.28,970.53 C980.69,973.05 973.62,979.96 970.88,986.58 C969.64,989.56 968.38,991.99 968.07,991.98 C967.75,991.97 966.45,989.55 965.18,986.60 ZM 540.87 662.66 C541.48,661.92 541.69,661.02 541.32,660.66 C540.96,660.30 540.95,660.00 541.30,660.00 C541.65,660.00 542.41,660.90 543.00,662.00 C543.92,663.71 543.76,664.00 541.91,664.00 C540.22,664.00 540.00,663.71 540.87,662.66 ZM 550.10 652.62 C549.21,651.55 549.30,651.10 550.47,650.65 C551.52,650.25 552.00,650.68 552.00,652.03 C552.00,654.36 551.64,654.47 550.10,652.62 Z" fill="rgb(37,186,201)"/>
<path d="M 965.18 986.60 C961.74,978.66 953.84,971.39 946.75,969.64 C942.75,968.65 943.33,967.64 949.33,965.16 C956.18,962.32 962.31,956.21 965.13,949.40 C966.36,946.43 967.65,944.00 968.00,944.00 C968.35,944.00 969.66,946.47 970.91,949.49 C973.61,956.00 980.86,963.02 987.53,965.56 C989.99,966.50 992.00,967.60 992.00,968.00 C992.00,968.40 989.88,969.54 987.28,970.53 C980.69,973.05 973.62,979.96 970.88,986.58 C969.64,989.56 968.38,991.99 968.07,991.98 C967.75,991.97 966.45,989.55 965.18,986.60 Z" fill="rgb(137,150,164)"/>
</g>
</svg>